solid OpenSCAD_Model
  facet normal 0.866025 0.5 -1.85037e-17
    outer loop
      vertex 6 0 8
      vertex 3 5.19615 0
      vertex 3 5.19615 8
    endloop
  endfacet
  facet normal 0.866025 0.5 -1.85037e-17
    outer loop
      vertex 3 5.19615 0
      vertex 6 0 8
      vertex 6 0 0
    endloop
  endfacet
  facet normal 0 1 -0
    outer loop
      vertex 3 5.19615 0
      vertex -3 5.19615 8
      vertex 3 5.19615 8
    endloop
  endfacet
  facet normal 0 1 0
    outer loop
      vertex -3 5.19615 8
      vertex 3 5.19615 0
      vertex -3 5.19615 0
    endloop
  endfacet
  facet normal -0.866025 0.5 1.85037e-17
    outer loop
      vertex -6 -0 0
      vertex -3 5.19615 8
      vertex -3 5.19615 0
    endloop
  endfacet
  facet normal -0.866025 0.5 1.85037e-17
    outer loop
      vertex -3 5.19615 8
      vertex -6 -0 0
      vertex -6 -0 8
    endloop
  endfacet
  facet normal -0.866025 -0.5 -1.85037e-17
    outer loop
      vertex -3 -5.19615 0
      vertex -6 -0 8
      vertex -6 -0 0
    endloop
  endfacet
  facet normal -0.866025 -0.5 -1.85037e-17
    outer loop
      vertex -6 -0 8
      vertex -3 -5.19615 0
      vertex -3 -5.19615 8
    endloop
  endfacet
  facet normal 0 -1 0
    outer loop
      vertex -3 -5.19615 0
      vertex 3 -5.19615 8
      vertex -3 -5.19615 8
    endloop
  endfacet
  facet normal 0 -1 -0
    outer loop
      vertex 3 -5.19615 8
      vertex -3 -5.19615 0
      vertex 3 -5.19615 0
    endloop
  endfacet
  facet normal 0.866025 -0.5 1.85037e-17
    outer loop
      vertex 3 -5.19615 8
      vertex 6 0 0
      vertex 6 0 8
    endloop
  endfacet
  facet normal 0.866025 -0.5 1.85037e-17
    outer loop
      vertex 6 0 0
      vertex 3 -5.19615 8
      vertex 3 -5.19615 0
    endloop
  endfacet
  facet normal 0 0 -1
    outer loop
      vertex 3 -5.19615 0
      vertex 3 5.19615 0
      vertex 6 0 0
    endloop
  endfacet
  facet normal 0 0 -1
    outer loop
      vertex -3 -5.19615 0
      vertex 3 5.19615 0
      vertex 3 -5.19615 0
    endloop
  endfacet
  facet normal 0 0 -1
    outer loop
      vertex -3 -5.19615 0
      vertex -3 5.19615 0
      vertex 3 5.19615 0
    endloop
  endfacet
  facet normal 0 -0 -1
    outer loop
      vertex -3 5.19615 0
      vertex -3 -5.19615 0
      vertex -6 -0 0
    endloop
  endfacet
  facet normal 0 0 1
    outer loop
      vertex 3 5.19615 8
      vertex 3 -5.19615 8
      vertex 6 0 8
    endloop
  endfacet
  facet normal -0 0 1
    outer loop
      vertex -3 5.19615 8
      vertex 3 -5.19615 8
      vertex 3 5.19615 8
    endloop
  endfacet
  facet normal 0 0 1
    outer loop
      vertex -3 5.19615 8
      vertex -3 -5.19615 8
      vertex 3 -5.19615 8
    endloop
  endfacet
  facet normal 0 -0 1
    outer loop
      vertex -3 -5.19615 8
      vertex -3 5.19615 8
      vertex -6 -0 8
    endloop
  endfacet
endsolid OpenSCAD_Model
